<svg width="17" height="16" viewBox="0 0 17 16" fill="none" xmlns="http://www.w3.org/2000/svg">
<g id="icon ant-design-area-chart-outlined" clip-path="url(#clip0_4614_806)">
<path id="Vector" d="M16.3333 13.8333H2V0.833338C2 0.741672 1.925 0.666672 1.83333 0.666672H0.666667C0.575 0.666672 0.5 0.741672 0.5 0.833338V15.1667C0.5 15.2583 0.575 15.3333 0.666667 15.3333H16.3333C16.425 15.3333 16.5 15.2583 16.5 15.1667V14C16.5 13.9083 16.425 13.8333 16.3333 13.8333ZM3.5 12.5H14.6667C14.7583 12.5 14.8333 12.425 14.8333 12.3333V3.25001C14.8333 3.10001 14.6521 3.02709 14.5479 3.13125L10.1667 7.51251L7.55417 4.92917C7.52284 4.89815 7.48054 4.88076 7.43646 4.88076C7.39238 4.88076 7.35007 4.89815 7.31875 4.92917L3.38125 8.87917C3.36596 8.89449 3.35385 8.91269 3.34562 8.93271C3.3374 8.95274 3.33322 8.97419 3.33333 8.99584V12.3333C3.33333 12.425 3.40833 12.5 3.5 12.5Z" fill="#23856D"/>
</g>
<defs>
<clipPath id="clip0_4614_806">
<rect width="16" height="14.6667" fill="white" transform="translate(0.5 0.666672)"/>
</clipPath>
</defs>
</svg>
