<svg width="105" height="63" viewBox="0 0 105 63" fill="none" xmlns="http://www.w3.org/2000/svg">
<g id="fa-brands-5" clip-path="url(#clip0_3010_33511)">
<path id="Vector" d="M29.8868 22.9887C29.7701 26.6267 31.6039 28.2378 31.6492 29.2609C31.6277 29.4692 31.5561 29.6693 31.4405 29.8445C31.325 30.0197 31.1688 30.1649 30.9851 30.268L28.9116 31.7072C28.6432 31.8937 28.3269 32.0007 27.9995 32.0156C27.9299 32.0124 26.6728 32.3095 24.6819 27.9021C23.4672 29.4054 21.9218 30.6133 20.1638 31.4332C18.4058 32.2531 16.482 32.6633 14.5395 32.6324C11.9022 32.7753 4.75504 31.1483 5.12277 23.6038C4.8652 17.4552 10.6403 13.6357 16.613 13.9585C17.7631 13.9617 20.1121 14.0179 24.2251 14.9656V12.4567C24.6608 8.20665 21.8438 4.90908 16.9661 5.4038C16.5773 5.4054 13.8235 5.32349 9.54034 7.02768C8.34806 7.57058 8.19579 7.48064 7.79891 7.48064C6.59853 7.48064 7.09261 4.03048 7.32264 3.59359C8.16663 2.56561 13.1317 0.64618 18.0045 0.673486C21.2626 0.387784 24.5032 1.3848 27.0259 3.44903C28.0514 4.58636 28.8338 5.91798 29.3257 7.36347C29.8177 8.80895 30.0091 10.3383 29.8884 11.8592L29.8868 22.9887ZM15.8873 28.1912C21.1407 28.1157 23.3649 24.9836 23.8719 23.2971C24.2704 21.6828 24.204 20.6613 24.204 18.896C22.6375 18.5234 20.3826 18.117 17.7955 18.1138C15.3413 17.9307 10.859 19.0181 11.0339 23.2955C10.833 25.9923 12.8353 28.339 15.8873 28.1912ZM43.5752 31.8935C42.302 32.0092 41.7091 31.1129 41.5211 30.2279L33.4539 3.78152C33.2967 3.33499 33.193 2.874 33.1428 2.40338C33.1131 2.20936 33.1622 2.01155 33.2795 1.85343C33.3967 1.69531 33.5725 1.58982 33.7681 1.56012C33.807 1.55369 33.4231 1.56012 37.3725 1.56012C38.7948 1.41877 39.2581 2.52867 39.4055 3.22577L45.1919 25.8461L50.5636 3.22577C50.6495 2.70856 51.0399 1.44768 52.6372 1.581H55.417C55.7685 1.55209 57.2167 1.50069 57.4711 3.24665L62.8849 26.1561L68.8576 3.24665C68.9353 2.89649 69.2982 1.42038 70.9117 1.581H74.1062C74.2439 1.56012 75.1024 1.45089 74.9567 2.95913C74.887 3.25628 75.5091 1.24691 66.4115 30.2488C66.2252 31.1338 65.6307 32.0301 64.3574 31.9144H61.3297C59.5575 32.0991 59.3032 30.3628 59.2757 30.1877L53.9039 8.16167L48.5938 30.1652C48.5679 30.3403 48.3135 32.0766 46.5397 31.8919H43.5752V31.8935ZM87.8773 32.7978C86.9248 32.7994 82.3824 32.7496 78.5853 30.8238C78.2071 30.665 77.8849 30.3984 77.6597 30.0578C77.4344 29.7173 77.3163 29.318 77.3201 28.9108V27.1841C77.3201 25.8269 78.3245 26.0758 78.7505 26.238C80.377 26.8902 81.4202 27.3849 83.4176 27.78C89.3547 28.9895 91.966 27.4106 92.6059 27.0604C94.7361 25.806 94.9046 22.9357 93.4563 21.4467C91.7587 20.0348 90.9487 19.9818 84.8496 18.0736C84.098 17.8664 77.7705 15.8876 77.7559 9.66349C77.6571 5.12753 81.8139 0.639755 89.0177 0.676698C91.0702 0.675092 96.5391 1.34007 98.0197 3.18561C98.2384 3.52131 98.3469 3.91644 98.3307 4.31639V5.94027C98.3307 6.65343 98.0683 7.01001 97.5418 7.01001C96.2929 6.87188 94.0768 5.21587 89.5782 5.28333C88.4621 5.22551 83.1163 5.4295 83.356 9.29406C83.2864 12.3394 87.6667 13.4815 88.1672 13.6132C94.0735 15.3752 96.0482 15.6675 98.3923 18.3644C101.169 21.9382 99.6721 26.1224 99.097 27.2692C96.0061 33.2909 88.0134 32.801 87.8773 32.7978ZM94.3894 49.6406C83.045 57.948 66.5767 62.3699 52.5157 62.3699C33.543 62.494 15.2098 55.5768 1.1199 42.978C0.0620835 42.032 0.995168 40.7358 2.2814 41.457C17.9113 50.3219 35.6076 54.9799 53.614 54.9685C67.0607 54.897 80.3606 52.1922 92.75 47.0097C94.6583 46.2065 96.2767 48.2625 94.3894 49.6406ZM99.118 44.2935C97.6666 42.4432 89.515 43.4294 85.8653 43.8615C84.7654 43.9851 84.5791 43.0391 85.5753 42.3404C92.0664 37.8157 102.727 39.1119 103.952 40.633C105.175 42.1541 103.62 52.7455 97.5434 57.805C96.6104 58.5873 95.7178 58.1745 96.1325 57.1465C97.4997 53.7333 100.569 46.1455 99.118 44.2935Z" fill="#737373"/>
</g>
<defs>
<clipPath id="clip0_3010_33511">
<rect width="104" height="62" fill="white" transform="translate(0.5 0.5)"/>
</clipPath>
</defs>
</svg>
