<svg width="17" height="16" viewBox="0 0 17 16" fill="none" xmlns="http://www.w3.org/2000/svg">
<g id="icn settings icn-xs" clip-path="url(#clip0_3010_33334)">
<path id="Vector" d="M0.500977 1.5C0.500977 1.36739 0.553655 1.24021 0.647423 1.14645C0.741191 1.05268 0.868368 1 1.00098 1H2.50098C2.61251 1.00003 2.72083 1.03735 2.80871 1.10602C2.89659 1.1747 2.95899 1.27078 2.98598 1.379L3.39098 3H15.001C15.0744 3.00007 15.1469 3.0163 15.2133 3.04755C15.2798 3.0788 15.3385 3.12429 15.3854 3.1808C15.4322 3.23731 15.4661 3.30345 15.4845 3.37452C15.5029 3.44558 15.5055 3.51984 15.492 3.592L13.992 11.592C13.9705 11.7066 13.9097 11.8101 13.8201 11.8846C13.7304 11.9591 13.6175 11.9999 13.501 12H4.50098C4.38441 11.9999 4.27154 11.9591 4.18189 11.8846C4.09223 11.8101 4.03142 11.7066 4.00998 11.592L2.51098 3.607L2.11098 2H1.00098C0.868368 2 0.741191 1.94732 0.647423 1.85355C0.553655 1.75979 0.500977 1.63261 0.500977 1.5ZM3.60298 4L4.91598 11H13.086L14.399 4H3.60298ZM5.50098 12C4.97054 12 4.46184 12.2107 4.08676 12.5858C3.71169 12.9609 3.50098 13.4696 3.50098 14C3.50098 14.5304 3.71169 15.0391 4.08676 15.4142C4.46184 15.7893 4.97054 16 5.50098 16C6.03141 16 6.54012 15.7893 6.91519 15.4142C7.29026 15.0391 7.50098 14.5304 7.50098 14C7.50098 13.4696 7.29026 12.9609 6.91519 12.5858C6.54012 12.2107 6.03141 12 5.50098 12ZM12.501 12C11.9705 12 11.4618 12.2107 11.0868 12.5858C10.7117 12.9609 10.501 13.4696 10.501 14C10.501 14.5304 10.7117 15.0391 11.0868 15.4142C11.4618 15.7893 11.9705 16 12.501 16C13.0314 16 13.5401 15.7893 13.9152 15.4142C14.2903 15.0391 14.501 14.5304 14.501 14C14.501 13.4696 14.2903 12.9609 13.9152 12.5858C13.5401 12.2107 13.0314 12 12.501 12ZM5.50098 13C5.76619 13 6.02055 13.1054 6.20808 13.2929C6.39562 13.4804 6.50098 13.7348 6.50098 14C6.50098 14.2652 6.39562 14.5196 6.20808 14.7071C6.02055 14.8946 5.76619 15 5.50098 15C5.23576 15 4.98141 14.8946 4.79387 14.7071C4.60633 14.5196 4.50098 14.2652 4.50098 14C4.50098 13.7348 4.60633 13.4804 4.79387 13.2929C4.98141 13.1054 5.23576 13 5.50098 13ZM12.501 13C12.7662 13 13.0205 13.1054 13.2081 13.2929C13.3956 13.4804 13.501 13.7348 13.501 14C13.501 14.2652 13.3956 14.5196 13.2081 14.7071C13.0205 14.8946 12.7662 15 12.501 15C12.2358 15 11.9814 14.8946 11.7939 14.7071C11.6063 14.5196 11.501 14.2652 11.501 14C11.501 13.7348 11.6063 13.4804 11.7939 13.2929C11.9814 13.1054 12.2358 13 12.501 13Z" fill="#23A6F0"/>
</g>
<defs>
<clipPath id="clip0_3010_33334">
<rect width="16" height="16" fill="white" transform="translate(0.500977)"/>
</clipPath>
</defs>
</svg>
