<svg width="17" height="16" viewBox="0 0 17 16" fill="none" xmlns="http://www.w3.org/2000/svg">
<g id="icn settings icn-xs" clip-path="url(#clip0_3010_33340)">
<path id="Vector" d="M8.50087 2.74805L7.78387 2.01105C6.10087 0.281049 3.01487 0.878049 1.90087 3.05305C1.37787 4.07605 1.25987 5.55305 2.21487 7.43805C3.13487 9.25305 5.04887 11.427 8.50087 13.795C11.9529 11.427 13.8659 9.25305 14.7869 7.43805C15.7419 5.55205 15.6249 4.07605 15.1009 3.05305C13.9869 0.878049 10.9009 0.280049 9.21787 2.01005L8.50087 2.74805ZM8.50087 15C-6.83213 4.86805 3.77987 -3.03995 8.32487 1.14305C8.38487 1.19805 8.44387 1.25505 8.50087 1.31405C8.55729 1.2551 8.616 1.19839 8.67687 1.14405C13.2209 -3.04195 23.8339 4.86705 8.50087 15Z" fill="#23A6F0"/>
</g>
<defs>
<clipPath id="clip0_3010_33340">
<rect width="16" height="16" fill="white" transform="translate(0.500977)"/>
</clipPath>
</defs>
</svg>
