<svg width="17" height="16" viewBox="0 0 17 16" fill="none" xmlns="http://www.w3.org/2000/svg">
<g id="icn settings icn-xs" clip-path="url(#clip0_3010_33329)">
<path id="Vector" d="M12.2429 10.344C13.2112 9.02267 13.6449 7.38447 13.4572 5.75713C13.2695 4.12979 12.4743 2.63332 11.2307 1.56711C9.98701 0.500899 8.38665 -0.056418 6.74973 0.00665514C5.11282 0.0697283 3.56008 0.748541 2.40217 1.90729C1.24425 3.06603 0.566548 4.61926 0.504647 6.25621C0.442745 7.89317 1.00121 9.49314 2.06831 10.736C3.1354 11.9789 4.63244 12.773 6.25992 12.9596C7.88739 13.1461 9.52528 12.7112 10.8459 11.742H10.8449C10.8749 11.782 10.9069 11.82 10.9429 11.857L14.7929 15.707C14.9804 15.8946 15.2348 16.0001 15.5 16.0002C15.7653 16.0003 16.0198 15.895 16.2074 15.7075C16.395 15.52 16.5005 15.2656 16.5006 15.0003C16.5007 14.7351 16.3954 14.4806 16.2079 14.293L12.3579 10.443C12.3221 10.4068 12.2837 10.3734 12.2429 10.343V10.344ZM12.5009 6.49998C12.5009 7.22225 12.3586 7.93745 12.0822 8.60474C11.8058 9.27203 11.4007 9.87834 10.89 10.3891C10.3793 10.8998 9.77295 11.3049 9.10566 11.5813C8.43837 11.8577 7.72317 12 7.0009 12C6.27863 12 5.56343 11.8577 4.89614 11.5813C4.22885 11.3049 3.62253 10.8998 3.11181 10.3891C2.60109 9.87834 2.19596 9.27203 1.91956 8.60474C1.64316 7.93745 1.5009 7.22225 1.5009 6.49998C1.5009 5.04129 2.08036 3.64234 3.11181 2.61089C4.14326 1.57944 5.54221 0.999979 7.0009 0.999979C8.45959 0.999979 9.85853 1.57944 10.89 2.61089C11.9214 3.64234 12.5009 5.04129 12.5009 6.49998Z" fill="#23A6F0"/>
</g>
<defs>
<clipPath id="clip0_3010_33329">
<rect width="16.0006" height="16.0003" fill="white" transform="translate(0.5 -0.00012207)"/>
</clipPath>
</defs>
</svg>
