<svg width="23" height="23" viewBox="0 0 23 23" fill="none" xmlns="http://www.w3.org/2000/svg">
<g id="icn bxs-star">
<path id="Vector" d="M20.1311 8.41927C20.0734 8.24946 19.9673 8.10025 19.8258 7.99006C19.6843 7.87987 19.5137 7.81353 19.3349 7.79922L14.1057 7.38371L11.8429 2.3747C11.7709 2.21337 11.6536 2.07634 11.5054 1.98016C11.3572 1.88397 11.1843 1.83274 11.0076 1.83264C10.8309 1.83254 10.658 1.88359 10.5097 1.97961C10.3613 2.07563 10.244 2.21253 10.1717 2.37378L7.90891 7.38371L2.67976 7.79922C2.50407 7.81314 2.3361 7.87738 2.19597 7.98425C2.05583 8.09113 1.94945 8.23612 1.88955 8.40187C1.82966 8.56762 1.81878 8.74712 1.85823 8.91889C1.89768 9.09066 1.98578 9.24743 2.11199 9.37044L5.9763 13.1375L4.60962 19.0555C4.56812 19.2347 4.58142 19.4221 4.64779 19.5936C4.71417 19.7651 4.83055 19.9127 4.98183 20.0172C5.13312 20.1217 5.31233 20.1783 5.4962 20.1797C5.68008 20.1811 5.86013 20.1272 6.01299 20.025L11.0073 16.6955L16.0017 20.025C16.1579 20.1288 16.3422 20.1822 16.5297 20.1781C16.7171 20.1739 16.8989 20.1125 17.0504 20.002C17.202 19.8916 17.316 19.7373 17.3773 19.5601C17.4386 19.3828 17.4441 19.1911 17.3931 19.0106L15.7155 13.1403L19.8761 9.39612C20.1485 9.15031 20.2485 8.7669 20.1311 8.41927Z" fill="#F3CD03"/>
</g>
</svg>
