<svg width="16" height="16" viewBox="0 0 16 16" fill="none" xmlns="http://www.w3.org/2000/svg">
<g id="icn settings icn-xs" clip-path="url(#clip0_2988_7855)">
<path id="Vector" d="M11.7429 10.344C12.7112 9.02267 13.1449 7.38447 12.9572 5.75713C12.7695 4.12979 11.9743 2.63332 10.7307 1.56711C9.48701 0.500899 7.88665 -0.056418 6.24973 0.00665514C4.61282 0.0697283 3.06008 0.748541 1.90217 1.90729C0.744249 3.06603 0.0665484 4.61926 0.00464653 6.25621C-0.0572553 7.89317 0.501207 9.49314 1.56831 10.736C2.6354 11.9789 4.13244 12.773 5.75992 12.9596C7.38739 13.1461 9.02528 12.7112 10.3459 11.742H10.3449C10.3749 11.782 10.4069 11.82 10.4429 11.857L14.2929 15.707C14.4804 15.8946 14.7348 16.0001 15 16.0002C15.2653 16.0003 15.5198 15.895 15.7074 15.7075C15.895 15.52 16.0005 15.2656 16.0006 15.0003C16.0007 14.7351 15.8954 14.4806 15.7079 14.293L11.8579 10.443C11.8221 10.4068 11.7837 10.3734 11.7429 10.343V10.344ZM12.0009 6.49998C12.0009 7.22225 11.8586 7.93745 11.5822 8.60474C11.3058 9.27203 10.9007 9.87834 10.39 10.3891C9.87926 10.8998 9.27295 11.3049 8.60566 11.5813C7.93837 11.8577 7.22317 12 6.5009 12C5.77863 12 5.06343 11.8577 4.39614 11.5813C3.72885 11.3049 3.12253 10.8998 2.61181 10.3891C2.10109 9.87834 1.69596 9.27203 1.41956 8.60474C1.14316 7.93745 1.0009 7.22225 1.0009 6.49998C1.0009 5.04129 1.58036 3.64234 2.61181 2.61089C3.64326 1.57944 5.04221 0.999979 6.5009 0.999979C7.95959 0.999979 9.35853 1.57944 10.39 2.61089C11.4214 3.64234 12.0009 5.04129 12.0009 6.49998Z" fill="#23A6F0"/>
</g>
<defs>
<clipPath id="clip0_2988_7855">
<rect width="16.0006" height="16.0003" fill="white"/>
</clipPath>
</defs>
</svg>
