<svg width="23" height="23" viewBox="0 0 23 23" fill="none" xmlns="http://www.w3.org/2000/svg">
<g id="icn bxs-star">
<path id="Vector" d="M21.0969 8.41939C21.0392 8.24958 20.9331 8.10037 20.7916 7.99018C20.6501 7.87999 20.4795 7.81365 20.3007 7.79934L15.0716 7.38383L12.8087 2.37482C12.7367 2.21349 12.6195 2.07646 12.4712 1.98028C12.323 1.88409 12.1501 1.83286 11.9734 1.83276C11.7968 1.83267 11.6238 1.88371 11.4755 1.97973C11.3272 2.07575 11.2098 2.21265 11.1375 2.3739L8.87473 7.38383L3.64558 7.79934C3.46989 7.81326 3.30193 7.8775 3.16179 7.98438C3.02165 8.09125 2.91527 8.23624 2.85537 8.40199C2.79548 8.56774 2.7846 8.74724 2.82405 8.91901C2.8635 9.09078 2.9516 9.24755 3.07781 9.37056L6.94212 13.1376L5.57544 19.0556C5.53394 19.2348 5.54724 19.4222 5.61361 19.5937C5.67999 19.7652 5.79637 19.9128 5.94765 20.0173C6.09894 20.1218 6.27815 20.1785 6.46202 20.1799C6.6459 20.1813 6.82595 20.1274 6.97881 20.0252L11.9731 16.6956L16.9675 20.0252C17.1237 20.1289 17.308 20.1823 17.4955 20.1782C17.683 20.1741 17.8647 20.1126 18.0162 20.0022C18.1678 19.8917 18.2819 19.7374 18.3431 19.5602C18.4044 19.3829 18.4099 19.1912 18.3589 19.0107L16.6813 13.1404L20.8419 9.39625C21.1143 9.15043 21.2143 8.76702 21.0969 8.41939Z" fill="#F3CD03"/>
</g>
</svg>
