<svg width="30" height="30" viewBox="0 0 30 30" fill="none" xmlns="http://www.w3.org/2000/svg">
<g id="ant-design:instagram-outlined" clip-path="url(#clip0_2874_4667)">
<path id="Vector" d="M15 7.30838C10.7438 7.30838 7.30879 10.7434 7.30879 14.9996C7.30879 19.2559 10.7438 22.6909 15 22.6909C19.2563 22.6909 22.6913 19.2559 22.6913 14.9996C22.6913 10.7434 19.2563 7.30838 15 7.30838ZM15 19.9984C12.2475 19.9984 10.0013 17.7521 10.0013 14.9996C10.0013 12.2471 12.2475 10.0009 15 10.0009C17.7525 10.0009 19.9988 12.2471 19.9988 14.9996C19.9988 17.7521 17.7525 19.9984 15 19.9984ZM23.0063 5.20088C22.0126 5.20088 21.21 6.00338 21.21 6.99713C21.21 7.99088 22.0126 8.79338 23.0063 8.79338C24.0001 8.79338 24.8026 7.99463 24.8026 6.99713C24.8029 6.76116 24.7566 6.52745 24.6664 6.30939C24.5763 6.09132 24.444 5.89319 24.2771 5.72633C24.1102 5.55947 23.9121 5.42718 23.694 5.33701C23.476 5.24684 23.2423 5.20059 23.0063 5.20088ZM29.9926 14.9996C29.9926 12.9296 30.0113 10.8784 29.8951 8.81213C29.7788 6.41213 29.2313 4.28213 27.4763 2.52713C25.7176 0.768381 23.5913 0.224631 21.1913 0.108381C19.1213 -0.00786902 17.07 0.010881 15.0038 0.010881C12.9338 0.010881 10.8825 -0.00786902 8.81629 0.108381C6.41629 0.224631 4.28628 0.772131 2.53128 2.52713C0.772532 4.28588 0.228782 6.41213 0.112531 8.81213C-0.00371864 10.8821 0.0150314 12.9334 0.0150314 14.9996C0.0150314 17.0659 -0.00371864 19.1209 0.112531 21.1871C0.228782 23.5871 0.776282 25.7171 2.53128 27.4721C4.29004 29.2309 6.41629 29.7746 8.81629 29.8909C10.8863 30.0071 12.9375 29.9884 15.0038 29.9884C17.0738 29.9884 19.125 30.0071 21.1913 29.8909C23.5913 29.7746 25.7213 29.2271 27.4763 27.4721C29.2351 25.7134 29.7788 23.5871 29.8951 21.1871C30.0151 19.1209 29.9926 17.0696 29.9926 14.9996ZM26.6926 23.8421C26.4188 24.5246 26.0888 25.0346 25.5601 25.5596C25.0313 26.0884 24.5251 26.4184 23.8426 26.6921C21.8701 27.4759 17.1863 27.2996 15 27.2996C12.8138 27.2996 8.12629 27.4759 6.15379 26.6959C5.47129 26.4221 4.96129 26.0921 4.43629 25.5634C3.90753 25.0346 3.57753 24.5284 3.30378 23.8459C2.52378 21.8696 2.70003 17.1859 2.70003 14.9996C2.70003 12.8134 2.52378 8.12588 3.30378 6.15338C3.57753 5.47088 3.90753 4.96088 4.43629 4.43588C4.96504 3.91088 5.47129 3.57713 6.15379 3.30338C8.12629 2.52338 12.8138 2.69963 15 2.69963C17.1863 2.69963 21.8738 2.52338 23.8463 3.30338C24.5288 3.57713 25.0388 3.90713 25.5638 4.43588C26.0926 4.96463 26.4226 5.47088 26.6963 6.15338C27.4763 8.12588 27.3001 12.8134 27.3001 14.9996C27.3001 17.1859 27.4763 21.8696 26.6926 23.8421Z" fill="black"/>
</g>
<defs>
<clipPath id="clip0_2874_4667">
<rect width="30" height="30" fill="white"/>
</clipPath>
</defs>
</svg>
