<svg width="105" height="63" viewBox="0 0 105 63" fill="none" xmlns="http://www.w3.org/2000/svg">
<g id="fa-brands-5" clip-path="url(#clip0_2879_8745)">
<path id="Vector" d="M29.8877 22.9882C29.7711 26.6263 31.6049 28.2373 31.6502 29.2605C31.6286 29.4687 31.5571 29.6688 31.4415 29.844C31.326 30.0192 31.1698 30.1645 30.986 30.2676L28.9125 31.7068C28.6442 31.8933 28.3279 32.0002 28.0005 32.0152C27.9308 32.0119 26.6738 32.3091 24.6829 27.9016C23.4682 29.405 21.9227 30.6128 20.1648 31.4327C18.4068 32.2526 16.4829 32.6628 14.5404 32.6319C11.9032 32.7749 4.75602 31.1478 5.12374 23.6034C4.86618 17.4548 10.6413 13.6352 16.614 13.9581C17.7641 13.9613 20.113 14.0175 24.2261 14.9652V12.4562C24.6618 8.20619 21.8447 4.90862 16.9671 5.40334C16.5783 5.40494 13.8244 5.32303 9.54132 7.02723C8.34904 7.57013 8.19677 7.48018 7.79988 7.48018C6.59951 7.48018 7.09359 4.03002 7.32362 3.59313C8.16761 2.56515 13.1327 0.645723 18.0055 0.673028C21.2636 0.387326 24.5042 1.38434 27.0269 3.44857C28.0524 4.58591 28.8347 5.91753 29.3267 7.36301C29.8187 8.8085 30.0101 10.3379 29.8894 11.8587L29.8877 22.9882ZM15.8882 28.1907C21.1417 28.1153 23.3659 24.9831 23.8729 23.2966C24.2714 21.6824 24.205 20.6608 24.205 18.8956C22.6385 18.5229 20.3836 18.1166 17.7965 18.1133C15.3423 17.9302 10.8599 19.0176 11.0349 23.295C10.834 25.9918 12.8363 28.3385 15.8882 28.1907ZM43.5762 31.8931C42.3029 32.0087 41.71 31.1125 41.5221 30.2274L33.4548 3.78106C33.2977 3.33453 33.194 2.87355 33.1438 2.40292C33.114 2.2089 33.1632 2.01109 33.2804 1.85298C33.3977 1.69486 33.5734 1.58936 33.7691 1.55966C33.808 1.55323 33.4241 1.55966 37.3735 1.55966C38.7958 1.41831 39.2591 2.52821 39.4065 3.22531L45.1929 25.8457L50.5646 3.22531C50.6505 2.70811 51.0409 1.44723 52.6381 1.58054H55.4179C55.7695 1.55163 57.2177 1.50023 57.472 3.24619L62.8859 26.1557L68.8586 3.24619C68.9363 2.89603 69.2992 1.41992 70.9127 1.58054H74.1072C74.2449 1.55966 75.1034 1.45044 74.9576 2.95868C74.888 3.25583 75.51 1.24645 66.4125 30.2483C66.2262 31.1333 65.6317 32.0296 64.3584 31.914H61.3307C59.5585 32.0987 59.3042 30.3624 59.2766 30.1873L53.9049 8.16121L48.5948 30.1648C48.5689 30.3399 48.3145 32.0762 46.5407 31.8915H43.5762V31.8931ZM87.8783 32.7974C86.9257 32.799 82.3834 32.7492 78.5863 30.8233C78.2081 30.6645 77.8859 30.398 77.6606 30.0574C77.4354 29.7168 77.3172 29.3176 77.3211 28.9103V27.1837C77.3211 25.8264 78.3255 26.0754 78.7515 26.2376C80.3779 26.8897 81.4212 27.3844 83.4186 27.7796C89.3556 28.989 91.967 27.4101 92.6069 27.06C94.7371 25.8055 94.9055 22.9352 93.4573 21.4462C91.7596 20.0344 90.9497 19.9814 84.8506 18.0732C84.0989 17.866 77.7715 15.8871 77.7569 9.66303C77.6581 5.12707 81.8148 0.639297 89.0187 0.67624C91.0712 0.674634 96.5401 1.33961 98.0207 3.18515C98.2394 3.52085 98.3479 3.91598 98.3317 4.31593V5.93982C98.3317 6.65298 98.0693 7.00956 97.5428 7.00956C96.2938 6.87142 94.0778 5.21541 89.5792 5.28287C88.4631 5.22505 83.1173 5.42904 83.357 9.2936C83.2874 12.339 87.6677 13.481 88.1682 13.6127C94.0745 15.3747 96.0492 15.6671 98.3933 18.3639C101.17 21.9377 99.673 26.1219 99.0979 27.2688C96.0071 33.2905 88.0143 32.8006 87.8783 32.7974ZM94.3904 49.6402C83.046 57.9475 66.5777 62.3695 52.5166 62.3695C33.544 62.4935 15.2108 55.5763 1.12088 42.9776C0.06306 42.0315 0.996144 40.7353 2.28237 41.4565C17.9123 50.3215 35.6086 54.9794 53.615 54.968C67.0616 54.8965 80.3616 52.1918 92.751 47.0092C94.6593 46.2061 96.2776 48.262 94.3904 49.6402ZM99.119 44.2931C97.6675 42.4427 89.516 43.4289 85.8663 43.861C84.7663 43.9847 84.5801 43.0386 85.5763 42.3399C92.0674 37.8152 102.728 39.1114 103.953 40.6325C105.176 42.1536 103.621 52.745 97.5444 57.8046C96.6113 58.5868 95.7188 58.174 96.1335 57.146C97.5007 53.7328 100.57 46.1451 99.119 44.2931Z" fill="#737373"/>
</g>
<defs>
<clipPath id="clip0_2879_8745">
<rect width="104" height="62" fill="white" transform="translate(0.5 0.5)"/>
</clipPath>
</defs>
</svg>
