<svg width="23" height="23" viewBox="0 0 23 23" fill="none" xmlns="http://www.w3.org/2000/svg">
<g id="icn bx-star">
<path id="Vector" d="M6.0319 13.1377L4.66522 19.0557C4.6229 19.2349 4.63561 19.4227 4.70168 19.5945C4.76775 19.7664 4.88411 19.9143 5.03557 20.0191C5.18703 20.1238 5.36655 20.1804 5.55068 20.1814C5.7348 20.1825 5.91498 20.1281 6.06767 20.0252L11.062 16.6956L16.0564 20.0252C16.2126 20.1289 16.3968 20.1823 16.5843 20.1782C16.7718 20.1741 16.9536 20.1127 17.1051 20.0022C17.2567 19.8917 17.3707 19.7375 17.432 19.5602C17.4933 19.383 17.4988 19.1912 17.4478 19.0107L15.7702 13.1404L19.9308 9.39628C20.064 9.27629 20.1592 9.11988 20.2045 8.94638C20.2498 8.77289 20.2432 8.58992 20.1856 8.4201C20.1281 8.25029 20.022 8.10107 19.8805 7.99091C19.739 7.88075 19.5683 7.81448 19.3896 7.80029L14.1604 7.38386L11.8976 2.37485C11.8255 2.21356 11.7082 2.0766 11.5599 1.98049C11.4116 1.88439 11.2387 1.83325 11.062 1.83325C10.8853 1.83325 10.7124 1.88439 10.5641 1.98049C10.4159 2.0766 10.2986 2.21356 10.2264 2.37485L7.9636 7.38386L2.73445 7.79937C2.55875 7.81329 2.39079 7.87753 2.25065 7.98441C2.11052 8.09128 2.00414 8.23627 1.94424 8.40202C1.88435 8.56777 1.87347 8.74727 1.91292 8.91904C1.95237 9.09081 2.04047 9.24758 2.16668 9.37059L6.0319 13.1377ZM8.64877 9.16972C8.81249 9.15682 8.96973 9.10012 9.104 9.00555C9.23827 8.91098 9.34462 8.78203 9.41191 8.63222L11.062 4.98071L12.7121 8.63222C12.7794 8.78203 12.8858 8.91098 13.02 9.00555C13.1543 9.10012 13.3115 9.15682 13.4753 9.16972L17.1185 9.45865L14.1182 12.159C13.8577 12.3938 13.7541 12.7552 13.8495 13.0927L14.9988 17.1148L11.572 14.83C11.4216 14.729 11.2445 14.6751 11.0634 14.6751C10.8822 14.6751 10.7052 14.729 10.5548 14.83L6.9739 17.2175L7.937 13.0478C7.97231 12.8944 7.96757 12.7346 7.92323 12.5836C7.8789 12.4326 7.79646 12.2955 7.68384 12.1856L4.89728 9.46874L8.64877 9.16972Z" fill="#F3CD03"/>
</g>
</svg>
