<svg width="16" height="16" viewBox="0 0 16 16" fill="none" xmlns="http://www.w3.org/2000/svg">
<g id="icon cool-icon-1">
<path id="coolicon" d="M7.99934 14.6667C4.70379 14.6232 2.04278 11.9622 1.99934 8.66666C2.04278 5.37111 4.70379 2.7101 7.99934 2.66666C11.2949 2.7101 13.9559 5.37111 13.9993 8.66666C13.9559 11.9622 11.2949 14.6232 7.99934 14.6667ZM7.99934 3.99999C5.43612 4.03374 3.36642 6.10344 3.33268 8.66666C3.36642 11.2299 5.43612 13.2996 7.99934 13.3333C10.5626 13.2996 12.6323 11.2299 12.666 8.66666C12.6323 6.10344 10.5626 4.03374 7.99934 3.99999ZM11.3327 9.33333H7.33268V5.33333H8.66601V7.99999H11.3327V9.33333ZM13.5273 4.472L11.5213 2.472L12.4607 1.52733L14.4673 3.52733L13.5273 4.47133V4.472ZM2.47068 4.472L1.52734 3.52733L3.52134 1.52733L4.46468 2.472L2.47201 4.472H2.47068Z" fill="#23A6F0"/>
</g>
</svg>
